<?xml version="1.0" encoding="UTF-8"?>
<svg width="50px" height="50px" viewBox="0 0 50 50" version="1.1" xmlns="http://www.w3.org/2000/svg" xmlns:xlink="http://www.w3.org/1999/xlink">
    <!-- Generator: Sketch 41.2 (35397) - http://www.bohemiancoding.com/sketch -->
    <title>Chevron</title>
    <desc>Created with Sketch.</desc>
    <defs></defs>
    <g id="Page-1" stroke="none" stroke-width="1" fill="none" fill-rule="evenodd">
        <g id="Chevron" fill="#000000">
            <g id="chevron-right" transform="translate(15.000000, 7.000000)">
                <path d="M13.8310191,18.1495726 L13.8310191,18.1495726 L13.8310191,18.1495726 L0.280143734,4.30463456 C-0.0602490694,3.96268606 -0.0521444789,3.39807342 0.296352915,3.04817263 L2.71962549,0.614771682 C3.06812288,0.264870892 3.63544422,0.256918601 3.97583703,0.5988671 L20.5254109,17.5133894 C20.7037119,17.6883398 20.7847578,17.9269085 20.7685486,18.1575249 C20.7766532,18.3960937 20.6956073,18.6267101 20.5254109,18.8016605 L3.97583703,35.7082305 C3.63544422,36.050179 3.06812288,36.0422267 2.71962549,35.6923259 L0.296352915,33.2589249 C-0.0521444789,32.9090242 -0.0602490694,32.3444115 0.280143734,32.002463 L13.8310191,18.1495726 L13.8310191,18.1495726 Z" id="Shape"></path>
            </g>
        </g>
    </g>
</svg>